<?xml version="1.0" encoding="UTF-8"?>
<svg xmlns="http://www.w3.org/2000/svg" id="Layer_3" data-name="Layer 3" viewBox="0 0 64 64" width="512" height="512"><path d="M32.172,40a7.772,7.772,0,0,0,5.535-2.293l-1.414-1.414A5.789,5.789,0,0,1,32.172,38h-.344a5.789,5.789,0,0,1-4.121-1.707l-1.414,1.414A7.772,7.772,0,0,0,31.828,40Z"/><path d="M61.8,59.9A10.977,10.977,0,0,0,52.648,55H47.616a6.836,6.836,0,0,1-2.708-.556,8.079,8.079,0,0,1-4.89-7.205,13.235,13.235,0,0,0,1.224-1.068l4.415-4.414A7.947,7.947,0,0,0,48,36.1V30.576a4.977,4.977,0,0,0,.208-9.039l1-2.988A15.494,15.494,0,0,0,47.112,4.638l-2.3-3.219a1,1,0,0,0-1.52-.126L41,3.586,38.707,1.293a1,1,0,0,0-1.414,0L35,3.586,32.707,1.293a1,1,0,0,0-1.414,0L29,3.586,26.707,1.293a1,1,0,0,0-1.414,0L23,3.586,20.707,1.293a1,1,0,0,0-1.52.126l-2.3,3.218A15.5,15.5,0,0,0,14.8,18.549l1,2.988A4.977,4.977,0,0,0,16,30.576V36.1a7.947,7.947,0,0,0,2.343,5.656l4.415,4.414a13.235,13.235,0,0,0,1.224,1.068,8.079,8.079,0,0,1-4.891,7.205A6.828,6.828,0,0,1,16.384,55H11.352A10.977,10.977,0,0,0,2.2,59.9L1.168,61.445l1.664,1.11,1.031-1.547A8.981,8.981,0,0,1,11.352,57h5.032a8.8,8.8,0,0,0,3.5-.718,10.01,10.01,0,0,0,1.92-1.116A14.542,14.542,0,0,0,31.657,59h.686A14.542,14.542,0,0,0,42.2,55.166a10,10,0,0,0,1.919,1.116,8.81,8.81,0,0,0,3.5.718h5.032a8.981,8.981,0,0,1,7.489,4.008l1.031,1.547,1.664-1.11ZM46,29H45V23h1a3,3,0,0,1,0,6ZM16.692,17.916A13.5,13.5,0,0,1,18.515,5.8l1.613-2.258,2.165,2.165a1,1,0,0,0,1.414,0L26,3.414l2.293,2.293a1,1,0,0,0,1.414,0L32,3.414l2.293,2.293a1,1,0,0,0,1.414,0L38,3.414l2.293,2.293a1,1,0,0,0,1.414,0l2.165-2.165L45.485,5.8a13.5,13.5,0,0,1,1.823,12.116l-1.037,3.111C46.179,21.022,46.093,21,46,21H45V18a3,3,0,0,0-3-3,6.2,6.2,0,0,1-4.414-1.828l-1.233-1.234A9.969,9.969,0,0,0,29.259,9a10.079,10.079,0,0,0-9.393,6.509A13.564,13.564,0,0,0,19,20.285V21H18c-.093,0-.179.022-.271.027ZM43,18V32.667a2.333,2.333,0,0,1-4.2,1.4A7.7,7.7,0,0,0,32.667,31H31.333A7.7,7.7,0,0,0,25.2,34.066a2.333,2.333,0,0,1-4.2-1.4V20.285a11.564,11.564,0,0,1,.739-4.074A8.068,8.068,0,0,1,29.259,11a7.977,7.977,0,0,1,5.679,2.353l1.234,1.233A8.188,8.188,0,0,0,42,17,1,1,0,0,1,43,18ZM15,26a3,3,0,0,1,3-3h1v6H18A3,3,0,0,1,15,26Zm4.757,14.343A5.961,5.961,0,0,1,18,36.1V31h1v1.667a4.334,4.334,0,0,0,7.8,2.6A5.691,5.691,0,0,1,31.333,33h1.334A5.691,5.691,0,0,1,37.2,35.267a4.334,4.334,0,0,0,7.8-2.6V31h1v5.1a5.961,5.961,0,0,1-1.757,4.242l-4.415,4.414a11.069,11.069,0,0,1-15.656,0ZM32.343,57h-.686a12.557,12.557,0,0,1-8.343-3.156,10.066,10.066,0,0,0,2.576-5.356,13.1,13.1,0,0,0,12.22,0,10.066,10.066,0,0,0,2.576,5.356A12.557,12.557,0,0,1,32.343,57Z"/></svg>
